<?xml version="1.0" encoding="UTF-8" standalone="no"?>
<svg
   width="25"
   height="25"
   fill="currentColor"
   class="bi bi-apple"
   viewBox="0 0 25 25"
   version="1.1"
   id="svg2"
   sodipodi:docname="apple.svg"
   inkscape:version="1.3 (0e150ed6c4, 2023-07-21)"
   xmlns:inkscape="http://www.inkscape.org/namespaces/inkscape"
   xmlns:sodipodi="http://sodipodi.sourceforge.net/DTD/sodipodi-0.dtd"
   xmlns="http://www.w3.org/2000/svg"
   xmlns:svg="http://www.w3.org/2000/svg">
  <defs
     id="defs2" />
  <sodipodi:namedview
     id="namedview2"
     pagecolor="#ffffff"
     bordercolor="#cccccc"
     borderopacity="1"
     inkscape:showpageshadow="0"
     inkscape:pageopacity="1"
     inkscape:pagecheckerboard="0"
     inkscape:deskcolor="#d1d1d1"
     inkscape:zoom="13.236155"
     inkscape:cx="3.3620035"
     inkscape:cy="17.414423"
     inkscape:window-width="1440"
     inkscape:window-height="837"
     inkscape:window-x="238"
     inkscape:window-y="1072"
     inkscape:window-maximized="1"
     inkscape:current-layer="svg2" />
  <path
     d="m 18.608194,0.01250388 c -0.06538,-0.0593747 -2.421159,0.02343738 -4.471164,1.83124072 -2.050005,1.8062408 -1.73462,3.8781052 -1.688466,3.9312299 0.04615,0.053125 2.923084,0.1359368 4.759627,-1.965615 1.836543,-2.1015518 1.465388,-3.73591843 1.400003,-3.79685562 z M 24.981287,18.345223 c -0.09231,-0.149999 -4.471165,-1.928115 -4.063472,-5.346848 0.407694,-3.4202948 3.221162,-4.3577901 3.265393,-4.459352 0.04423,-0.101562 -1.14808,-1.2343688 -2.411544,-1.8078033 A 7.1000172,5.7687206 0 0 0 18.765887,6.0530981 C 18.558194,6.0484106 17.837039,5.9046614 16.354343,6.2343472 15.377417,6.4515336 13.175489,7.154655 12.569718,7.1827799 11.962024,7.2109047 10.154328,6.367159 8.2100925,6.1437227 6.9658587,5.9484112 5.6466247,6.3484091 4.7023917,6.65622 c -0.94231,0.3062485 -2.734622,1.178119 -3.98847122,3.495295 -1.25384922,2.315613 -0.5980784,5.984344 -0.1288465,7.124963 0.46923192,1.139057 1.20192602,3.006235 2.44808292,4.368728 1.1076949,1.537492 2.5769293,2.604674 3.1903923,2.967173 0.613463,0.362498 2.344236,0.603122 3.544239,0.104687 0.9653868,-0.481248 2.7076988,-0.757809 3.3961618,-0.737497 0.686541,0.02031 2.04039,0.240624 3.426932,0.842184 1.098079,0.30781 2.136543,0.179686 3.176931,-0.164062 1.040387,-0.345311 2.54616,-1.654679 4.303856,-4.309353 0.667309,-1.234369 0.971156,-1.901553 0.909618,-2.003115 z"
     id="path1"
     style="fill:#ffffff;stroke-width:1.73343" />
  <path
     d="m 18.608194,0.01250388 c -0.06538,-0.0593747 -2.421159,0.02343738 -4.471164,1.83124072 -2.050005,1.8062408 -1.73462,3.8781052 -1.688466,3.9312299 0.04615,0.053125 2.923084,0.1359368 4.759627,-1.965615 1.836543,-2.1015518 1.465388,-3.73591843 1.400003,-3.79685562 z M 24.981287,18.345223 c -0.09231,-0.149999 -4.471165,-1.928115 -4.063472,-5.346848 0.407694,-3.4202948 3.221162,-4.3577901 3.265393,-4.459352 0.04423,-0.101562 -1.14808,-1.2343688 -2.411544,-1.8078033 A 7.1000172,5.7687206 0 0 0 18.765887,6.0530981 C 18.558194,6.0484106 17.837039,5.9046614 16.354343,6.2343472 15.377417,6.4515336 13.175489,7.154655 12.569718,7.1827799 11.962024,7.2109047 10.154328,6.367159 8.2100925,6.1437227 6.9658587,5.9484112 5.6466247,6.3484091 4.7023917,6.65622 c -0.94231,0.3062485 -2.734622,1.178119 -3.98847122,3.495295 -1.25384922,2.315613 -0.5980784,5.984344 -0.1288465,7.124963 0.46923192,1.139057 1.20192602,3.006235 2.44808292,4.368728 1.1076949,1.537492 2.5769293,2.604674 3.1903923,2.967173 0.613463,0.362498 2.344236,0.603122 3.544239,0.104687 0.9653868,-0.481248 2.7076988,-0.757809 3.3961618,-0.737497 0.686541,0.02031 2.04039,0.240624 3.426932,0.842184 1.098079,0.30781 2.136543,0.179686 3.176931,-0.164062 1.040387,-0.345311 2.54616,-1.654679 4.303856,-4.309353 0.667309,-1.234369 0.971156,-1.901553 0.909618,-2.003115 z"
     id="path2"
     style="fill:#ffffff;stroke-width:1.73343" />
</svg>
