<?xml version="1.0" encoding="UTF-8" standalone="no"?>
<svg
   viewBox="0 0 25 25"
   version="1.1"
   id="svg1"
   sodipodi:docname="js.svg"
   width="25"
   height="25"
   inkscape:version="1.3 (0e150ed6c4, 2023-07-21)"
   xmlns:inkscape="http://www.inkscape.org/namespaces/inkscape"
   xmlns:sodipodi="http://sodipodi.sourceforge.net/DTD/sodipodi-0.dtd"
   xmlns="http://www.w3.org/2000/svg"
   xmlns:svg="http://www.w3.org/2000/svg">
  <defs
     id="defs1" />
  <sodipodi:namedview
     id="namedview1"
     pagecolor="#ffffff"
     bordercolor="#cccccc"
     borderopacity="1"
     inkscape:showpageshadow="0"
     inkscape:pageopacity="1"
     inkscape:pagecheckerboard="0"
     inkscape:deskcolor="#d1d1d1"
     inkscape:zoom="13.236155"
     inkscape:cx="23.911778"
     inkscape:cy="8.0461433"
     inkscape:window-width="1440"
     inkscape:window-height="837"
     inkscape:window-x="238"
     inkscape:window-y="1072"
     inkscape:window-maximized="1"
     inkscape:current-layer="svg1" />
  <path
     d="M 0.07555064,0.11762893 V 25.117629 H 25.075551 V 0.11762893 Z M 13.680462,19.615397 c 0,2.433036 -1.428572,3.543527 -3.510045,3.543527 -1.8805807,0 -2.9687503,-0.970983 -3.526786,-2.148438 l 1.9140625,-1.155134 c 0.3683035,0.652902 0.703125,1.205357 1.5122765,1.205357 0.77009,0 1.261161,-0.301339 1.261161,-1.478794 v -7.985491 h 2.349331 z m 5.558035,3.543527 c -2.181919,0 -3.59375,-1.037947 -4.280133,-2.399554 l 1.914062,-1.104911 c 0.502232,0.820313 1.160714,1.428572 2.315848,1.428572 0.970982,0 1.595982,-0.485491 1.595982,-1.160715 0,-0.803571 -0.63616,-1.088169 -1.713169,-1.5625 L 18.485149,18.1087 c -1.696428,-0.719866 -2.81808,-1.629464 -2.81808,-3.543526 0,-1.763393 1.344866,-3.102679 3.4375,-3.102679 1.495536,0 2.566964,0.518973 3.337053,1.88058 l -1.830357,1.171875 c -0.401785,-0.719866 -0.837053,-1.004464 -1.512277,-1.004464 -0.686383,0 -1.121651,0.435268 -1.121651,1.004464 0,0.703125 0.435268,0.987724 1.445312,1.428572 l 0.585938,0.251116 c 1.997768,0.853795 3.119419,1.729911 3.119419,3.694196 0,2.109375 -1.662946,3.27009 -3.889509,3.27009 z"
     id="path1"
     style="stroke-width:0.0558036;fill:#ffffff" />
</svg>
