<?xml version="1.0" encoding="UTF-8" standalone="no"?>
<svg
   viewBox="0 0 25 25"
   version="1.1"
   id="svg1"
   sodipodi:docname="linux.svg"
   width="25"
   height="25"
   inkscape:version="1.3 (0e150ed6c4, 2023-07-21)"
   xmlns:inkscape="http://www.inkscape.org/namespaces/inkscape"
   xmlns:sodipodi="http://sodipodi.sourceforge.net/DTD/sodipodi-0.dtd"
   xmlns="http://www.w3.org/2000/svg"
   xmlns:svg="http://www.w3.org/2000/svg">
  <defs
     id="defs1" />
  <sodipodi:namedview
     id="namedview1"
     pagecolor="#ffffff"
     bordercolor="#cccccc"
     borderopacity="1"
     inkscape:showpageshadow="0"
     inkscape:pageopacity="1"
     inkscape:pagecheckerboard="0"
     inkscape:deskcolor="#d1d1d1"
     inkscape:zoom="9.359375"
     inkscape:cx="20.247078"
     inkscape:cy="20.781302"
     inkscape:window-width="1440"
     inkscape:window-height="837"
     inkscape:window-x="238"
     inkscape:window-y="1072"
     inkscape:window-maximized="1"
     inkscape:current-layer="svg1" />
  <path
     d="m 12.371166,6.3402659 c 0.05912,0.024412 0.106421,0.083001 0.177368,0.083001 0.06503,0 0.165544,-0.01953 0.171456,-0.073236 0.01182,-0.068354 -0.112333,-0.1122954 -0.189193,-0.1415898 -0.100508,-0.034177 -0.230578,-0.048824 -0.325175,-0.00488 -0.02365,0.00976 -0.0473,0.034177 -0.03547,0.053706 0.01774,0.063471 0.135982,0.053706 0.201017,0.083001 z m -1.294788,0.083001 c 0.07095,0 0.118245,-0.058589 0.177368,-0.083001 0.06503,-0.029294 0.183281,-0.01953 0.20693,-0.078119 0.01182,-0.01953 -0.01183,-0.043942 -0.03547,-0.053706 -0.0946,-0.043942 -0.224666,-0.029294 -0.325175,0.00488 -0.07686,0.029294 -0.201017,0.073236 -0.189193,0.1415898 0.0059,0.048824 0.106421,0.073236 0.165544,0.068354 z M 24.148415,20.035414 c -0.212842,-0.195296 -0.31335,-0.566359 -0.425683,-0.961834 -0.106421,-0.395474 -0.230579,-0.820244 -0.620789,-1.093659 -0.07686,-0.05371 -0.153719,-0.10253 -0.236491,-0.141589 -0.07686,-0.03906 -0.159632,-0.07324 -0.242403,-0.09765 0.543929,-1.332897 0.331087,-2.660912 -0.218755,-3.861984 C 21.730295,12.409096 20.553753,11.125023 19.655087,10.24619 18.644088,9.1964734 17.662651,8.2004625 17.680388,6.7308583 17.709949,4.489834 17.981914,0.32514158 13.198884,0.32025917 7.1447155,0.31049436 8.6582575,5.3686671 8.5932225,6.9212722 c -0.100509,1.142483 -0.378386,2.0408457 -1.330262,3.1589168 -1.11742,1.098541 -2.690084,2.870854 -3.435031,4.721286 -0.354736,0.873951 -0.52028,1.762549 -0.366561,2.602323 -0.384298,0.283179 -0.673999,0.717713 -0.981437,0.986246 -0.248316,0.209943 -0.608964,0.288062 -1.005087,0.405239 -0.396122,0.117178 -0.82771799,0.292945 -1.09376999,0.707949 -0.124158,0.190414 -0.165544,0.395475 -0.165544,0.605419 0,0.190413 0.03547,0.38571 0.07095,0.576123 0.07095,0.395475 0.147807,0.766538 0.0473,1.015541 -0.307438,0.703066 -0.348824,1.191307 -0.13007,1.547723 0.224667,0.356415 0.674,0.512652 1.18836699,0.600536 1.022824,0.175766 2.412208,0.131824 3.505979,0.6103 1.17063,0.50777 2.358997,0.68842 3.304961,0.50777 0.685824,-0.126942 1.24749,-0.46871 1.531279,-0.986246 0.7390345,-0.0049 1.5549285,-0.263649 2.8556285,-0.322238 0.880929,-0.05859 1.986524,0.258767 3.257663,0.200178 0.03547,0.112296 0.08277,0.224591 0.147807,0.327122 v 0.0049 c 0.490718,0.815362 1.407121,1.186425 2.382646,1.122953 0.981437,-0.06347 2.016085,-0.537064 2.855628,-1.362191 0.80407,-0.800715 2.128419,-1.132718 3.009348,-1.572135 0.437508,-0.219708 0.792244,-0.493123 0.821806,-0.89348 0.02365,-0.400357 -0.26014,-0.844656 -0.916403,-1.450075 z M 12.542622,4.5825997 c 0.579403,-1.0838941 2.021997,-1.0643645 2.6014,-0.01953 0.384298,0.6933016 0.212842,1.5086634 -0.254228,1.972492 -0.0946,-0.039059 -0.348824,-0.1269426 -0.744946,-0.2392379 0.06503,-0.058589 0.18328,-0.131825 0.230579,-0.2245907 C 14.659216,5.4956096 14.363607,4.7534839 13.83741,4.7388367 13.405814,4.7144247 13.015604,5.2661365 13.139761,5.8617901 12.897358,5.7641419 12.584008,5.6909059 12.371166,5.6469642 12.312046,5.3100782 12.353426,4.9341329 12.542622,4.5825997 Z M 10.136326,4.021123 c 0.59714,0 1.229753,0.6933017 1.129245,1.635606 -0.20693,0.048824 -0.419772,0.1220602 -0.603052,0.2245907 C 10.733469,5.4467856 10.467414,4.8999561 10.09494,4.9243681 9.5983085,4.9585451 9.5155375,5.9594382 9.9885185,6.2963242 10.047639,6.3353832 10.100853,6.2865642 9.6396945,6.5648565 8.7173805,5.8520253 9.0189065,4.021123 10.136326,4.021123 Z M 9.3322565,6.9847434 C 9.6988175,6.7601528 10.136326,6.4965028 10.165888,6.4720908 10.443765,6.257265 10.964045,5.7787892 11.815412,5.7787892 c 0.419772,0 0.922315,0.1122953 1.531279,0.4345341 0.372473,0.2001786 0.668087,0.2148259 1.336174,0.4540638 0.496631,0.1708842 0.809981,0.4735933 0.620789,0.8885979 -0.153719,0.3466508 -0.65035,0.7030664 -1.342087,0.8837154 -0.656262,0.1757667 -1.17063,0.781185 -2.258488,0.7274785 C 11.4725,9.1574141 11.28922,9.1183549 11.135501,9.0646484 10.662519,8.8937642 10.414203,8.5568782 9.9530455,8.3322875 9.4445895,8.097932 9.1726255,7.8245173 9.0839415,7.5852794 c -0.08277,-0.2392379 0,-0.4394166 0.248315,-0.600536 z m 0.195105,16.3072356 c -0.159631,1.713725 -2.595488,1.679548 -4.451942,0.878833 -1.76777,-0.77142 -4.05582,-0.317356 -4.52288999,-1.069247 -0.141894,-0.229473 -0.141894,-0.620065 0.15372,-1.288955 v -0.0098 c 0.141894,-0.371062 0.03547,-0.781185 -0.03547,-1.166895 -0.07095,-0.380827 -0.106421,-0.732361 0.05321,-0.976481 0.20693,-0.327121 0.50254399,-0.444299 0.87501699,-0.551712 0.608964,-0.180649 0.697648,-0.166002 1.158806,-0.483358 0.325175,-0.278297 0.561666,-0.62983 0.845455,-0.878833 0.301526,-0.268532 0.591227,-0.395475 1.046472,-0.336886 0.478894,0.05859 0.892754,0.332004 1.294788,0.781185 l 1.158806,1.738136 c 0.561666,0.971599 2.54819,2.363085 2.424032,3.363978 z m -0.08277,-1.264543 c -0.242405,-0.322239 -0.56758,-0.664007 -0.851369,-0.956952 0.419771,0 0.839543,-0.107412 0.98735,-0.434534 0.135982,-0.302709 0,-0.727478 -0.437509,-1.215719 -0.798157,-0.888598 -2.264401,-1.586782 -2.264401,-1.586782 -0.798157,-0.410122 -1.247489,-0.91301 -1.454419,-1.459839 -0.206929,-0.54683 -0.177368,-1.137601 -0.01774,-1.718607 0.307439,-1.118071 1.099683,-2.206848 1.608139,-2.890384 0.135982,-0.083 0.0473,0.156237 -0.514368,1.01554 -0.502543,0.786067 -1.442595,2.602322 -0.153719,4.023103 0.03547,-1.010658 0.325175,-2.040846 0.815894,-3.00268 0.709472,-1.337779 2.205278,-3.656922 2.323523,-5.5024713 0.06504,0.039059 0.271965,0.156237 0.366561,0.2001786 0.2719655,0.131825 0.4788945,0.3271212 0.7449475,0.5028878 0.733122,0.4882406 1.684998,0.4491814 2.506804,0.058589 0.366561,-0.1708842 0.662174,-0.3661804 0.940051,-0.4394165 0.585315,-0.1513546 1.052385,-0.419887 1.318437,-0.7323609 0.455245,1.4842514 1.519455,3.6276273 2.199366,4.6724623 0.360649,0.556594 1.081946,1.733254 1.395297,3.154034 0.195105,-0.0049 0.413859,0.01953 0.644438,0.06835 0.815893,-1.743019 -0.691736,-3.622745 -1.37756,-4.145163 -0.277877,-0.224591 -0.289702,-0.322239 -0.153719,-0.317356 0.744946,0.546829 1.726384,1.645371 2.08112,2.880619 0.165544,0.566359 0.195105,1.15713 0.02365,1.743019 0.969613,0.332004 2.122507,0.873951 1.815068,1.699077 -0.13007,-0.0049 -0.189192,0 -0.248315,0 0.189193,-0.493123 -0.230579,-0.859303 -1.347999,-1.274308 -1.158805,-0.419886 -2.128418,-0.419886 -2.2644,0.610301 -0.715386,0.205061 -1.081947,0.717714 -1.265227,1.332897 -0.165544,0.54683 -0.212842,1.205954 -0.26014,1.94808 -0.02956,0.375945 -0.212842,0.878833 -0.402035,1.415898 -1.89784,1.118071 -4.534714,1.606311 -6.7577295,0.351533 z M 24.662785,21.465959 c -0.05321,0.820245 -2.435857,0.971599 -3.736557,2.270319 -0.78042,0.766538 -1.738208,1.191307 -2.577751,1.245014 -0.839543,0.05371 -1.566753,-0.234356 -1.992437,-0.942305 -0.277877,-0.541947 -0.141894,-1.127835 0.06504,-1.772313 0.218755,-0.693302 0.54393,-1.406133 0.585315,-1.982257 0.0473,-0.742126 0.100509,-1.391486 0.248316,-1.889491 0.153719,-0.502888 0.39021,-0.839774 0.809981,-1.030188 0.01774,-0.0098 0.04139,-0.01465 0.05912,-0.02441 0.0473,0.644478 0.431596,1.29872 1.111508,1.44031 0.744946,0.161119 1.815068,-0.36618 2.270313,-0.795832 0.532105,-0.01465 0.928227,-0.04394 1.336174,0.249003 0.585315,0.415004 0.419771,1.479369 1.010999,2.03108 0.626701,0.56636 0.827718,0.95207 0.809981,1.201072 z M 9.5628355,7.580397 c 0.118245,0.092766 0.277877,0.2197083 0.4729825,0.3466508 0.39021,0.2538851 0.934139,0.517535 1.61405,0.517535 0.685824,0 1.330262,-0.2880619 1.880103,-0.5272998 0.289702,-0.1269426 0.644438,-0.3417684 0.875017,-0.5077702 0.230579,-0.1660018 0.348824,-0.3075916 0.18328,-0.3222388 -0.165543,-0.014647 -0.153719,0.1269425 -0.354736,0.2490027 -0.26014,0.156237 -0.57349,0.361298 -0.821806,0.4784758 -0.437508,0.205061 -1.152893,0.4980054 -1.76777,0.4980054 -0.614876,0 -1.105595,-0.2343555 -1.472156,-0.4735934 C 9.9885185,7.7171043 9.8347995,7.5950442 9.7165545,7.5022785 9.6278745,7.4339245 9.6042215,7.2776878 9.4623265,7.2630406 c -0.08277,-0.00488 -0.106421,0.180649 0.100509,0.3173564 z"
     id="path1"
     style="stroke-width:0.0537273;fill:#ffffff" />
</svg>
