<?xml version="1.0" encoding="UTF-8" standalone="no"?>
<svg
   width="16"
   height="16"
   fill="currentColor"
   class="bi bi-linkedin"
   viewBox="0 0 16 16"
   version="1.1"
   id="svg1"
   sodipodi:docname="logo.svg"
   inkscape:version="1.3 (0e150ed6c4, 2023-07-21)"
   xml:space="preserve"
   xmlns:inkscape="http://www.inkscape.org/namespaces/inkscape"
   xmlns:sodipodi="http://sodipodi.sourceforge.net/DTD/sodipodi-0.dtd"
   xmlns="http://www.w3.org/2000/svg"
   xmlns:svg="http://www.w3.org/2000/svg"><defs
     id="defs1" /><sodipodi:namedview
     id="namedview1"
     pagecolor="#ffffff"
     bordercolor="#cccccc"
     borderopacity="1"
     inkscape:showpageshadow="0"
     inkscape:pageopacity="1"
     inkscape:pagecheckerboard="0"
     inkscape:deskcolor="#d1d1d1"
     inkscape:zoom="6.6180775"
     inkscape:cx="21.15418"
     inkscape:cy="27.575984"
     inkscape:window-width="1440"
     inkscape:window-height="837"
     inkscape:window-x="238"
     inkscape:window-y="1072"
     inkscape:window-maximized="1"
     inkscape:current-layer="svg1" /><g
     id="g4"
     transform="matrix(0.41343463,0,0,0.35506679,22.666799,6.7314788)"
     style="fill:#ffffff"><path
       style="fill:#ffffff;stroke-width:1.24214"
       d="m -33.169068,25.776754 c -0.484918,-0.174654 -1.32239,-0.556448 -2.391323,-1.090171 -2.073646,-1.035393 -2.551657,-1.227194 -3.267636,-1.31113 -0.944175,-0.110687 -1.898095,-0.344098 -3.234276,-0.791383 -2.702297,-0.904594 -4.511318,-1.93074 -6.477278,-3.67416 -2.468452,-2.189035 -4.43915,-5.430761 -5.252834,-8.640724 -0.36823,-1.4526574 -0.512511,-2.5311318 -0.549194,-4.1051227 -0.03943,-1.691467 0.03221,-2.5978199 0.317476,-4.0173661 0.172774,-0.8597479 0.703946,-2.71208401 0.760425,-2.65180441 0.01205,0.012819 -0.04946,0.3377354 -0.136613,0.7220274 -1.347614,5.94229881 0.685168,12.35723381 5.115884,16.14439981 2.179861,1.863242 4.263401,2.832918 7.440607,3.462843 l 1.26171,0.250152 0.679987,-0.120339 c 0.373995,-0.06618 0.994404,-0.176182 1.378696,-0.244444 1.067852,-0.189682 1.509344,-0.1642 4.149379,0.23949 3.104047,0.474643 3.131151,0.480125 3.308862,0.669297 0.308745,0.328641 0.21761,1.10143 -0.153292,1.299931 -0.109308,0.05849 -0.707432,0.06654 -2.35048,0.03164 -1.92054,-0.0408 -2.214566,-0.03393 -2.287057,0.05341 -0.04571,0.05513 -0.06596,0.154395 -0.04497,0.220595 0.03851,0.121394 2.363263,1.367103 2.767789,1.48312 0.322098,0.09238 0.626111,-0.03452 2.666218,-1.112917 2.494334,-1.318499 2.959626,-1.548886 3.128159,-1.548886 0.07763,0 0.246862,0.105644 0.375982,0.234763 0.212132,0.212138 0.231211,0.261175 0.197996,0.508845 -0.02025,0.150746 -0.09142,0.328675 -0.158235,0.395397 -0.06683,0.06673 -0.720377,0.486883 -1.452356,0.933691 -4.373174,2.669409 -4.588485,2.786417 -5.12038,2.78262 -0.18493,-0.0014 -0.487874,-0.05701 -0.673226,-0.123766 z m 1.068969,-2.461547 c -0.124698,-0.03979 -0.913951,-0.436131 -1.659133,-0.833165 l -0.328247,-0.174897 1.796439,0.0448 c 0.988032,0.02464 1.874582,0.02519 1.970089,0.0012 0.242973,-0.06099 0.566401,-0.348923 0.712438,-0.634254 0.101731,-0.198792 0.251595,-0.308405 0.852838,-0.623798 0.401185,-0.210445 0.803252,-0.382629 0.893493,-0.382629 0.145504,0 0.519648,0.296505 0.448163,0.355163 -0.0154,0.01263 -0.252576,0.143632 -0.527075,0.291113 -0.470385,0.252731 -0.834939,0.443789 -2.861395,1.499644 -0.871383,0.454022 -1.078162,0.526816 -1.29761,0.456798 z m 2.57086,-2.47266 c -0.05764,-0.165528 -0.04894,-0.206121 0.05689,-0.262733 0.17965,-0.09614 0.298734,-0.08316 0.463913,0.05059 l 0.145156,0.117544 -0.298845,0.145188 -0.298833,0.145187 z M -17.605706,8.6425215 c 0.09254,-0.2410948 0.383584,-1.6898548 0.482868,-2.403427 0.13379,-0.9615285 0.150621,-3.0844899 0.03217,-4.0591888 -0.598312,-4.9240804 -3.073068,-9.0686174 -6.990876,-11.7077944 -1.387887,-0.9349303 -3.355294,-1.7359253 -5.294044,-2.1553753 -1.788178,-0.386873 -1.77911,-0.386452 -3.059466,-0.142305 -1.783657,0.340119 -2.13189,0.335468 -4.755678,-0.06351 -3.334487,-0.507051 -3.361101,-0.512702 -3.567011,-0.757413 -0.152974,-0.181799 -0.170221,-0.251546 -0.145775,-0.58951 0.03172,-0.438571 0.15834,-0.622227 0.492609,-0.714522 0.131617,-0.03635 0.897023,-0.03764 1.903165,-0.0032 2.526281,0.08643 2.497277,0.08726 2.58363,-0.07409 0.05465,-0.102116 0.05304,-0.162048 -0.0062,-0.233675 -0.09428,-0.113643 -2.14713,-1.196696 -2.578797,-1.360552 -0.22941,-0.08707 -0.360592,-0.09906 -0.56988,-0.05203 -0.149541,0.0336 -1.322458,0.613876 -2.606494,1.289507 -1.284034,0.67563 -2.426235,1.263004 -2.538223,1.305275 -0.52545,0.198335 -1.021154,-0.472242 -0.732699,-0.991177 0.102477,-0.184357 5.122995,-3.276562 5.93597,-3.65604 0.755716,-0.352758 1.178998,-0.231259 4.025911,1.155611 2.289952,1.115548 2.316981,1.126053 3.128977,1.216176 0.913194,0.101358 1.578991,0.258876 2.848452,0.673921 2.082578,0.680891 3.325894,1.261867 4.785253,2.236051 2.528815,1.688083 4.442784,3.8386843 5.842957,6.5653323 1.342624,2.6145961 1.96527,5.19841459 1.966164,8.1591517 5.09e-4,1.6592723 -0.144013,2.9605373 -0.472993,4.25882 -0.172595,0.6810705 -0.660394,2.1959543 -0.70711,2.1959543 -0.02087,0 -0.02211,-0.041388 -0.0025,-0.09198 z m -24.170314,-21.2451125 -0.156466,-0.109594 0.258112,-0.156242 c 0.141961,-0.08593 0.277641,-0.156394 0.30151,-0.156582 0.02387,-1.87e-4 0.07465,0.08931 0.112848,0.19888 0.05908,0.169448 0.05075,0.209225 -0.05566,0.266176 -0.174932,0.09362 -0.279653,0.08392 -0.460343,-0.04264 z m -1.458604,-0.244052 c -0.07958,-0.0847 -0.144688,-0.171179 -0.144688,-0.19216 0,-0.02098 0.801024,-0.457358 1.780054,-0.96973 2.766063,-1.447609 2.592823,-1.366302 2.816121,-1.321642 0.109929,0.02199 0.625503,0.265182 1.145697,0.540432 l 0.945812,0.500452 -1.801358,-0.04369 c -0.99074,-0.02403 -1.879289,-0.02412 -1.974554,-2.17e-4 -0.242569,0.06088 -0.566062,0.349002 -0.711994,0.634143 -0.101744,0.198791 -0.251601,0.308405 -0.852847,0.623798 -0.40118,0.210445 -0.803249,0.382628 -0.893487,0.382628 -0.09024,0 -0.229179,-0.06931 -0.308756,-0.154014 z"
       id="path3"
       sodipodi:nodetypes="sssssssscssscsssssscssssscsccsssscsssssssssccscccccscssssssscscssssssssssssssccccssssscsssssccssssss" /><g
       id="g3"
       transform="translate(0.75485655,1.2244333)"
       style="fill:#ffffff"><text
         xml:space="preserve"
         style="font-style:normal;font-variant:normal;font-weight:normal;font-stretch:normal;font-size:14.277px;font-family:BastianCaltonDemo;-inkscape-font-specification:'BastianCaltonDemo, Normal';font-variant-ligatures:normal;font-variant-caps:normal;font-variant-numeric:normal;font-variant-east-asian:normal;text-align:center;text-anchor:middle;fill:#ffffff;stroke-width:0.264537;stroke-opacity:0.941176"
         x="-46.235912"
         y="8"
         id="text3"><tspan
           sodipodi:role="line"
           id="tspan3"
           x="-46.235912"
           y="8"
           style="font-style:normal;font-variant:normal;font-weight:normal;font-stretch:normal;font-size:14.277px;font-family:BastianCaltonDemo;-inkscape-font-specification:'BastianCaltonDemo, Normal';font-variant-ligatures:normal;font-variant-caps:normal;font-variant-numeric:normal;font-variant-east-asian:normal;fill:#ffffff;stroke-width:0.264537">J</tspan></text><text
         xml:space="preserve"
         style="font-style:normal;font-variant:normal;font-weight:normal;font-stretch:normal;font-size:14.277px;font-family:BastianCaltonDemo;-inkscape-font-specification:'BastianCaltonDemo, Normal';font-variant-ligatures:normal;font-variant-caps:normal;font-variant-numeric:normal;font-variant-east-asian:normal;text-align:center;text-anchor:middle;fill:#ffffff;stroke-width:0.264537;stroke-opacity:0.941176"
         x="-38.156689"
         y="8"
         id="text3-3"><tspan
           sodipodi:role="line"
           id="tspan3-9"
           x="-38.156689"
           y="8"
           style="font-style:normal;font-variant:normal;font-weight:normal;font-stretch:normal;font-size:14.277px;font-family:BastianCaltonDemo;-inkscape-font-specification:'BastianCaltonDemo, Normal';font-variant-ligatures:normal;font-variant-caps:normal;font-variant-numeric:normal;font-variant-east-asian:normal;fill:#ffffff;stroke-width:0.264537">D</tspan></text><text
         xml:space="preserve"
         style="font-style:normal;font-variant:normal;font-weight:normal;font-stretch:normal;font-size:14.277px;font-family:BastianCaltonDemo;-inkscape-font-specification:'BastianCaltonDemo, Normal';font-variant-ligatures:normal;font-variant-caps:normal;font-variant-numeric:normal;font-variant-east-asian:normal;text-align:center;text-anchor:middle;fill:#ffffff;stroke-width:0.264537;stroke-opacity:0.941176"
         x="-28.041878"
         y="8"
         id="text3-2"><tspan
           sodipodi:role="line"
           id="tspan3-2"
           x="-28.041878"
           y="8"
           style="font-style:normal;font-variant:normal;font-weight:normal;font-stretch:normal;font-size:14.277px;font-family:BastianCaltonDemo;-inkscape-font-specification:'BastianCaltonDemo, Normal';font-variant-ligatures:normal;font-variant-caps:normal;font-variant-numeric:normal;font-variant-east-asian:normal;fill:#ffffff;stroke-width:0.264537">M</tspan></text></g></g></svg>
