<?xml version="1.0" encoding="UTF-8" standalone="no"?>
<svg
   width="16"
   height="16"
   fill="currentColor"
   class="bi bi-play-circle"
   viewBox="0 0 16 16"
   version="1.1"
   id="svg2"
   sodipodi:docname="play-circle.svg"
   inkscape:version="1.3 (0e150ed6c4, 2023-07-21)"
   xmlns:inkscape="http://www.inkscape.org/namespaces/inkscape"
   xmlns:sodipodi="http://sodipodi.sourceforge.net/DTD/sodipodi-0.dtd"
   xmlns="http://www.w3.org/2000/svg"
   xmlns:svg="http://www.w3.org/2000/svg">
  <defs
     id="defs2" />
  <sodipodi:namedview
     id="namedview2"
     pagecolor="#ffffff"
     bordercolor="#cccccc"
     borderopacity="1"
     inkscape:showpageshadow="0"
     inkscape:pageopacity="1"
     inkscape:pagecheckerboard="0"
     inkscape:deskcolor="#d1d1d1"
     inkscape:zoom="13.236155"
     inkscape:cx="0.90660769"
     inkscape:cy="10.841517"
     inkscape:window-width="1440"
     inkscape:window-height="837"
     inkscape:window-x="238"
     inkscape:window-y="1072"
     inkscape:window-maximized="1"
     inkscape:current-layer="svg2" />
  <path
     d="M8 15A7 7 0 1 1 8 1a7 7 0 0 1 0 14zm0 1A8 8 0 1 0 8 0a8 8 0 0 0 0 16z"
     id="path1"
     style="fill:#ffffff" />
  <path
     d="M6.271 5.055a.5.5 0 0 1 .52.038l3.5 2.5a.5.5 0 0 1 0 .814l-3.5 2.5A.5.5 0 0 1 6 10.5v-5a.5.5 0 0 1 .271-.445z"
     id="path2"
     style="fill:#ffffff" />
</svg>
