<?xml version="1.0" encoding="UTF-8" standalone="no"?>
<svg
   viewBox="0 0 25 25"
   version="1.1"
   id="svg1"
   sodipodi:docname="python.svg"
   width="25"
   height="25"
   inkscape:version="1.3 (0e150ed6c4, 2023-07-21)"
   xmlns:inkscape="http://www.inkscape.org/namespaces/inkscape"
   xmlns:sodipodi="http://sodipodi.sourceforge.net/DTD/sodipodi-0.dtd"
   xmlns="http://www.w3.org/2000/svg"
   xmlns:svg="http://www.w3.org/2000/svg">
  <defs
     id="defs1" />
  <sodipodi:namedview
     id="namedview1"
     pagecolor="#ffffff"
     bordercolor="#cccccc"
     borderopacity="1"
     inkscape:showpageshadow="0"
     inkscape:pageopacity="1"
     inkscape:pagecheckerboard="0"
     inkscape:deskcolor="#d1d1d1"
     inkscape:zoom="23.96"
     inkscape:cx="12.479132"
     inkscape:cy="12.5"
     inkscape:window-width="1440"
     inkscape:window-height="837"
     inkscape:window-x="238"
     inkscape:window-y="1072"
     inkscape:window-maximized="1"
     inkscape:current-layer="svg1" />
  <path
     d="M 24.517546,9.4814938 C 24.087872,7.7572225 23.273166,6.4570435 21.537731,6.4570435 h -2.237652 v 2.644999 c 0,2.0535015 -1.741016,3.7833535 -3.727559,3.7833535 H 9.6128886 c -1.6294124,0 -2.9798156,1.395041 -2.9798156,3.03003 v 5.68061 c 0,1.618248 1.406205,2.566876 2.9798156,3.03003 1.8861004,0.552436 3.6996584,0.652879 5.9596314,0 1.501068,-0.435253 2.979815,-1.311339 2.979815,-3.03003 v -2.271128 h -5.954051 v -0.758903 h 8.939447 c 1.735435,0 2.377156,-1.210896 2.979815,-3.02445 0.62498,-1.869356 0.597079,-3.66617 0,-6.0600612 z M 15.946392,20.837133 c 0.6194,0 1.121616,0.507795 1.121616,1.132774 0,0.630558 -0.502216,1.138354 -1.121616,1.138354 -0.61382,0 -1.121616,-0.513376 -1.121616,-1.138354 0.0056,-0.630559 0.507796,-1.132774 1.121616,-1.132774 z m -6.6069324,-8.69948 h 5.9596314 c 1.657313,0 2.979815,-1.36714 2.979815,-3.0300305 v -5.68619 c 0,-1.618248 -1.361563,-2.82914398 -2.979815,-3.10257198 -1.997704,-0.32923 -4.168394,-0.31249 -5.9596314,0.0056 C 6.8172189,0.77087352 6.3596442,1.7027615 6.3596442,3.4270325 v 2.271128 h 5.9652118 v 0.758883 H 4.1219925 c -1.7354356,0 -3.25324416,1.043491 -3.72755936,3.0244503 -0.5468576,2.2711282 -0.5691783,3.6884902 0,6.0600612 0.4240936,1.763332 1.43410586,3.02445 3.16954146,3.02445 h 2.0479257 v -2.723121 c 0,-1.969799 1.7019545,-3.705231 3.7275593,-3.705231 z M 8.9655876,4.1803355 c -0.6193997,0 -1.1216158,-0.507795 -1.1216158,-1.132774 0.00558,-0.630559 0.5022161,-1.138354 1.1216158,-1.138354 0.61382,0 1.1216164,0.513375 1.1216164,1.138354 0,0.624979 -0.5022164,1.132774 -1.1216164,1.132774 z"
     id="path1"
     style="fill:#ffffff;stroke-width:0.0558017" />
</svg>
