<?xml version="1.0" encoding="UTF-8" standalone="no"?>
<svg
   viewBox="0 0 25 25"
   version="1.1"
   id="svg1"
   sodipodi:docname="react.svg"
   width="25"
   height="25"
   inkscape:version="1.3 (0e150ed6c4, 2023-07-21)"
   xmlns:inkscape="http://www.inkscape.org/namespaces/inkscape"
   xmlns:sodipodi="http://sodipodi.sourceforge.net/DTD/sodipodi-0.dtd"
   xmlns="http://www.w3.org/2000/svg"
   xmlns:svg="http://www.w3.org/2000/svg">
  <defs
     id="defs1" />
  <sodipodi:namedview
     id="namedview1"
     pagecolor="#ffffff"
     bordercolor="#cccccc"
     borderopacity="1"
     inkscape:showpageshadow="0"
     inkscape:pageopacity="1"
     inkscape:pagecheckerboard="0"
     inkscape:deskcolor="#d1d1d1"
     inkscape:zoom="1.1699219"
     inkscape:cx="255.57262"
     inkscape:cy="256"
     inkscape:window-width="1440"
     inkscape:window-height="837"
     inkscape:window-x="238"
     inkscape:window-y="1072"
     inkscape:window-maximized="1"
     inkscape:current-layer="svg1" />
  <path
     d="m 21.27468,7.6332514 c -0.263672,-0.100441 -0.527344,-0.195302 -0.791016,-0.284583 0.04395,-0.206462 0.08301,-0.412924 0.122071,-0.619386 0.600586,-3.325716 0.205078,-5.99856396 -1.12793,-6.88021296 -1.28418,-0.842589 -3.378906,0.03348 -5.498047,2.14274196 -0.209961,0.206463 -0.415039,0.424085 -0.610352,0.641707 -0.131835,-0.145081 -0.268554,-0.290163 -0.405273,-0.429664 -2.221679,-2.25434396 -4.4482425,-3.20295396 -5.7812505,-2.31572496 -1.279297,0.848169 -1.660156,3.36477596 -1.123047,6.51192896 0.05371,0.312484 0.112305,0.619387 0.180665,0.93187 -0.3125,0.100441 -0.620118,0.212042 -0.908204,0.329224 -2.607421,1.032311 -4.47753895,2.6616876 -4.47753895,4.3468656 0,1.740978 1.99218795,3.487537 4.70214895,4.547748 0.219726,0.0837 0.439453,0.167402 0.664062,0.239942 -0.07324,0.334804 -0.136718,0.664028 -0.195312,1.004411 -0.512696,3.096933 -0.112305,5.552159 1.166992,6.394748 1.318359,0.870489 3.5351565,-0.02232 5.6933595,-2.181803 0.170898,-0.172982 0.341797,-0.351544 0.512695,-0.541266 0.214844,0.239943 0.439453,0.468725 0.664063,0.691927 2.089844,2.053462 4.155273,2.884891 5.429687,2.042302 1.31836,-0.870489 1.748047,-3.509857 1.191407,-6.723971 -0.04395,-0.245523 -0.09277,-0.496626 -0.146485,-0.753308 0.15625,-0.05022 0.307617,-0.106021 0.458985,-0.161822 2.817382,-1.065791 4.858398,-2.79003 4.858398,-4.558908 0,-1.690758 -1.923828,-3.3312956 -4.580078,-4.3747666 z m -6.606445,-4.73747 c 1.816406,-1.807939 3.510742,-2.51660696 4.282226,-2.00882096 0.825195,0.54126496 1.142578,2.72864896 0.625,5.60237896 -0.03418,0.189722 -0.06836,0.373864 -0.112305,0.558006 -1.083984,-0.279003 -2.182617,-0.479885 -3.286132,-0.591486 -0.634766,-1.037891 -1.328125,-2.031142 -2.080079,-2.963012 0.19043,-0.206462 0.375977,-0.401764 0.57129,-0.597066 z M 9.0188205,14.904068 c 0.249023,0.485466 0.50293,0.970931 0.771484,1.445236 -0.761719,-0.09486 -1.518554,-0.234363 -2.265625,-0.418505 0.214844,-0.803528 0.483399,-1.634957 0.795899,-2.483126 0.224609,0.491045 0.454101,0.97651 0.698242,1.456395 z M 7.5393285,8.1912574 c 0.703125,-0.178562 1.450195,-0.323643 2.226562,-0.435244 -0.258789,0.463144 -0.512695,0.93745 -0.751953,1.417335 -0.239258,0.474305 -0.473633,0.9597696 -0.693359,1.4508146 -0.307618,-0.8314286 -0.566407,-1.6461166 -0.78125,-2.4329056 z m 1.33789,3.8446606 c 0.322266,-0.770048 0.673828,-1.523356 1.044922,-2.2655036 0.3710945,-0.742148 0.7714855,-1.461976 1.1914065,-2.170643 0.732422,-0.06138 1.479492,-0.09486 2.241211,-0.09486 0.761719,0 1.513672,0.03348 2.241211,0.09486 0.415039,0.703087 0.810547,1.422915 1.186523,2.159483 0.375977,0.7365676 0.727539,1.4898756 1.059571,2.2543436 -0.327149,0.770048 -0.678711,1.528936 -1.054688,2.276664 -0.371094,0.742148 -0.766601,1.461975 -1.18164,2.176223 -0.727539,0.06138 -1.484375,0.08928 -2.250977,0.08928 -0.766602,0 -1.508789,-0.0279 -2.226562,-0.07812 -0.424805,-0.708667 -0.825195,-1.434075 -1.2011725,-2.176223 -0.375977,-0.742148 -0.722656,-1.495456 -1.049805,-2.265504 z m 8.8183595,2.85699 c 0.249024,-0.491045 0.483399,-0.98767 0.712891,-1.489876 0.3125,0.809109 0.585937,1.629378 0.825195,2.471967 -0.756836,0.195302 -1.523437,0.345963 -2.294922,0.446404 0.263672,-0.468725 0.512696,-0.94861 0.756836,-1.428495 z m 0.703125,-4.268745 c -0.229492,-0.491045 -0.463867,-0.9820896 -0.708008,-1.4619756 -0.239257,-0.474305 -0.488281,-0.94303 -0.74707,-1.406174 0.786133,0.111601 1.538086,0.262262 2.241211,0.446404 -0.224609,0.825849 -0.488281,1.629378 -0.786133,2.4217456 z M 13.364524,4.3465964 c 0.512695,0.636127 0.996093,1.305734 1.445312,1.997662 -0.966797,-0.05022 -1.938476,-0.05022 -2.905273,0 0.478515,-0.719828 0.971679,-1.389435 1.459961,-1.997662 z M 7.7004605,0.92602044 c 0.820313,-0.546846 2.6416025,0.23436296 4.5605475,2.17622296 0.12207,0.122762 0.244141,0.256683 0.371094,0.390604 -0.756836,0.93187 -1.455078,1.925121 -2.094726,2.963012 -1.1035165,0.111601 -2.1972665,0.306903 -3.2812505,0.580326 -0.06348,-0.284583 -0.117188,-0.574746 -0.170899,-0.864909 -0.458984,-2.700749 -0.15625,-4.73747 0.615234,-5.24525596 z M 6.5041715,15.635056 c -0.205078,-0.06696 -0.405273,-0.139501 -0.605468,-0.217622 -1.040039,-0.373864 -2.22168,-0.96535 -3.076172,-1.740979 -0.493164,-0.390604 -0.825196,-0.99325 -0.917969,-1.668437 0,-1.021151 1.542969,-2.3268846 3.769531,-3.2141136 0.278321,-0.111602 0.561524,-0.212043 0.844727,-0.306904 0.332031,1.210873 0.732422,2.3994256 1.196289,3.5489176 -0.46875,1.166232 -0.874024,2.371525 -1.210938,3.599138 z m 5.6933595,5.468458 c -0.805664,0.842589 -1.73828,1.512196 -2.7539055,1.969761 -0.541993,0.295743 -1.166993,0.323643 -1.723633,0.07254 -0.776367,-0.513366 -1.098633,-2.483127 -0.65918,-5.133655 0.05371,-0.312483 0.112305,-0.624966 0.180664,-0.93187 1.09375,0.267843 2.197266,0.451985 3.3154305,0.546846 0.644531,1.043471 1.352538,2.042302 2.109374,2.979752 -0.15625,0.172982 -0.3125,0.340384 -0.46875,0.496626 z m 1.19629,-1.355954 c -0.498047,-0.613807 -0.996094,-1.294574 -1.479493,-2.025562 0.46875,0.02232 0.952149,0.03348 1.44043,0.03348 0.50293,0 0.996094,-0.01116 1.484375,-0.03906 -0.449219,0.708668 -0.932617,1.383855 -1.445312,2.031142 z m 6.381835,1.674018 c -0.04395,0.680767 -0.336914,1.316894 -0.805664,1.746558 -0.776367,0.513366 -2.43164,-0.156242 -4.21875,-1.90838 -0.205078,-0.200882 -0.410156,-0.418505 -0.620117,-0.641707 0.74707,-0.94303 1.435547,-1.941861 2.060547,-2.990912 1.118164,-0.106021 2.231445,-0.301323 3.330078,-0.585906 0.04883,0.228783 0.09277,0.457565 0.131836,0.680767 0.239258,1.205293 0.27832,2.460806 0.12207,3.69958 z m 0.888672,-5.998564 c -0.136718,0.05022 -0.273437,0.100441 -0.415039,0.145081 -0.341797,-1.216452 -0.761719,-2.405005 -1.245117,-3.560077 0.46875,-1.138332 0.864258,-2.3101446 1.196289,-3.5098576 0.253906,0.0837 0.498047,0.172982 0.732422,0.262263 2.275391,0.89281 3.87207,2.2208636 3.87207,3.2364346 0,1.093691 -1.704101,2.505446 -4.140625,3.426156 z m -7.30957,-0.837009 c 1.235352,0 2.236328,-1.143912 2.236328,-2.555667 0,-1.411755 -1.000976,-2.5556666 -2.236328,-2.5556666 -1.235352,0 -2.236328,1.1439116 -2.236328,2.5556666 0,1.411755 1.000976,2.555667 2.236328,2.555667 z"
     id="path1"
     style="fill:#ffffff;stroke-width:0.0521981" />
</svg>
