<?xml version="1.0" encoding="UTF-8" standalone="no"?>
<svg
   width="25"
   height="25"
   fill="currentColor"
   class="bi bi-wordpress"
   viewBox="0 0 25 25"
   version="1.1"
   id="svg3"
   sodipodi:docname="wordpress.svg"
   inkscape:version="1.3 (0e150ed6c4, 2023-07-21)"
   xmlns:inkscape="http://www.inkscape.org/namespaces/inkscape"
   xmlns:sodipodi="http://sodipodi.sourceforge.net/DTD/sodipodi-0.dtd"
   xmlns="http://www.w3.org/2000/svg"
   xmlns:svg="http://www.w3.org/2000/svg">
  <defs
     id="defs3" />
  <sodipodi:namedview
     id="namedview3"
     pagecolor="#ffffff"
     bordercolor="#cccccc"
     borderopacity="1"
     inkscape:showpageshadow="0"
     inkscape:pageopacity="1"
     inkscape:pagecheckerboard="0"
     inkscape:deskcolor="#d1d1d1"
     inkscape:zoom="13.236155"
     inkscape:cx="9.3305042"
     inkscape:cy="18.698784"
     inkscape:window-width="1440"
     inkscape:window-height="837"
     inkscape:window-x="238"
     inkscape:window-y="1072"
     inkscape:window-maximized="1"
     inkscape:current-layer="svg3" />
  <g
     id="g3"
     transform="scale(1.5625)"
     style="fill:#ffffff">
    <path
       d="m 12.633,7.653 c 0,-0.848 -0.305,-1.435 -0.566,-1.892 l -0.08,-0.13 c -0.317,-0.51 -0.594,-0.958 -0.594,-1.48 0,-0.63 0.478,-1.218 1.152,-1.218 0.02,0 0.039,0.002 0.058,0.003 l 0.031,0.003 A 6.838,6.838 0 0 0 8,1.137 6.855,6.855 0 0 0 2.266,4.23 c 0.16,0.005 0.313,0.009 0.442,0.009 0.717,0 1.828,-0.087 1.828,-0.087 0.37,-0.022 0.414,0.521 0.044,0.565 0,0 -0.371,0.044 -0.785,0.065 l 2.5,7.434 1.5,-4.506 -1.07,-2.929 C 6.356,4.759 6.006,4.716 6.006,4.716 5.636,4.694 5.68,4.128 6.049,4.15 c 0,0 1.134,0.087 1.808,0.087 0.718,0 1.83,-0.087 1.83,-0.087 0.37,-0.022 0.413,0.522 0.043,0.566 0,0 -0.372,0.043 -0.785,0.065 l 2.48,7.377 0.684,-2.287 0.054,-0.173 c 0.27,-0.86 0.469,-1.495 0.469,-2.046 z M 1.137,8 a 6.864,6.864 0 0 0 3.868,6.176 L 1.73,5.206 A 6.837,6.837 0 0 0 1.137,8 Z"
       id="path1"
       style="fill:#ffffff" />
    <path
       d="M 6.061,14.583 8.121,8.6 10.23,14.38 c 0.014,0.033 0.03,0.064 0.049,0.094 a 6.854,6.854 0 0 1 -4.218,0.109 z m 7.96,-9.876 c 0.03,0.219 0.047,0.453 0.047,0.706 0,0.696 -0.13,1.479 -0.522,2.458 l -2.096,6.06 a 6.86,6.86 0 0 0 2.572,-9.224 z"
       id="path2"
       style="fill:#ffffff" />
    <path
       fill-rule="evenodd"
       d="M 0,8 C 0,3.589 3.589,0 8,0 c 4.41,0 8,3.589 8,8 0,4.411 -3.59,8 -8,8 C 3.589,16 0,12.411 0,8 Z m 0.367,0 c 0,4.209 3.424,7.633 7.633,7.633 4.208,0 7.632,-3.424 7.632,-7.633 C 15.632,3.79 12.208,0.367 8,0.367 3.79,0.367 0.367,3.79 0.367,8 Z"
       id="path3"
       style="fill:#ffffff" />
  </g>
</svg>
